<?xml version="1.0" standalone="no"?>
<svg xmlns:xlink="http://www.w3.org/1999/xlink" id="wave" style="transform:rotate(0deg); transition: 0.3s" viewBox="0 0 1440 130" version="1.1" xmlns="http://www.w3.org/2000/svg"><defs><linearGradient id="sw-gradient-0" x1="0" x2="0" y1="1" y2="0"><stop stop-color="rgba(243, 106, 62, 1)" offset="0%"/><stop stop-color="rgba(255, 179, 11, 1)" offset="100%"/></linearGradient></defs><path style="transform:translate(0, 0px); opacity:1" fill="gray" d="M0,0L11.4,8.7C22.9,17,46,35,69,47.7C91.4,61,114,69,137,73.7C160,78,183,78,206,67.2C228.6,56,251,35,274,36.8C297.1,39,320,65,343,78C365.7,91,389,91,411,78C434.3,65,457,39,480,34.7C502.9,30,526,48,549,54.2C571.4,61,594,56,617,49.8C640,43,663,35,686,41.2C708.6,48,731,69,754,73.7C777.1,78,800,65,823,67.2C845.7,69,869,87,891,82.3C914.3,78,937,52,960,54.2C982.9,56,1006,87,1029,101.8C1051.4,117,1074,117,1097,108.3C1120,100,1143,82,1166,82.3C1188.6,82,1211,100,1234,108.3C1257.1,117,1280,117,1303,108.3C1325.7,100,1349,82,1371,67.2C1394.3,52,1417,39,1440,30.3C1462.9,22,1486,17,1509,26C1531.4,35,1554,56,1577,65C1600,74,1623,69,1634,67.2L1645.7,65L1645.7,130L1634.3,130C1622.9,130,1600,130,1577,130C1554.3,130,1531,130,1509,130C1485.7,130,1463,130,1440,130C1417.1,130,1394,130,1371,130C1348.6,130,1326,130,1303,130C1280,130,1257,130,1234,130C1211.4,130,1189,130,1166,130C1142.9,130,1120,130,1097,130C1074.3,130,1051,130,1029,130C1005.7,130,983,130,960,130C937.1,130,914,130,891,130C868.6,130,846,130,823,130C800,130,777,130,754,130C731.4,130,709,130,686,130C662.9,130,640,130,617,130C594.3,130,571,130,549,130C525.7,130,503,130,480,130C457.1,130,434,130,411,130C388.6,130,366,130,343,130C320,130,297,130,274,130C251.4,130,229,130,206,130C182.9,130,160,130,137,130C114.3,130,91,130,69,130C45.7,130,23,130,11,130L0,130Z"/></svg>